<?xml version="1.0" standalone="no"?>
<!DOCTYPE svg PUBLIC "-//W3C//DTD SVG 20010904//EN"
 "http://www.w3.org/TR/2001/REC-SVG-20010904/DTD/svg10.dtd">
<svg version="1.0" xmlns="http://www.w3.org/2000/svg"
 width="417.000000pt" height="417.000000pt" viewBox="0 0 417.000000 417.000000"
 preserveAspectRatio="xMidYMid meet">
<metadata>
Created by potrace 1.11, written by Peter Selinger 2001-2013
</metadata>
<g transform="translate(0.000000,417.000000) scale(0.100000,-0.100000)"
fill="#000000" stroke="none">
<path d="M473 3742 c-13 -2 -23 -11 -23 -20 -1 -9 -2 -380 -3 -825 l-2 -807
35 -1 c19 0 268 -1 553 -1 284 -1 517 -4 517 -7 0 -3 -50 -25 -110 -49 -450
-176 -817 -554 -980 -1012 -62 -173 -98 -360 -103 -535 l-2 -50 590 0 589 0 2
30 c8 139 80 286 187 380 52 46 168 108 222 121 64 14 211 13 271 -2 162 -42
299 -157 368 -308 25 -53 47 -144 48 -196 l1 -30 590 0 590 0 -6 108 c-8 127
-13 159 -38 272 -41 179 -115 367 -196 495 -7 11 -20 34 -29 50 -19 34 -115
165 -142 194 -243 260 -430 391 -715 501 l-98 37 565 -1 566 -1 0 828 0 827
-22 1 c-13 0 -204 1 -425 1 l-402 0 -163 -112 c-157 -107 -242 -165 -504 -346
l-121 -83 -159 109 c-87 60 -163 113 -169 117 -5 5 -53 37 -105 73 -52 35
-153 104 -223 153 l-129 89 -401 1 c-221 1 -412 1 -424 -1z"/>
</g>
</svg>
