<?xml version="1.0" encoding="UTF-8"?>
<svg width="459px" height="185px" viewBox="0 0 459 185" version="1.1" xmlns="http://www.w3.org/2000/svg" xmlns:xlink="http://www.w3.org/1999/xlink">
    <!-- Generator: Sketch 58 (84663) - https://sketch.com -->
    <title>Group 98</title>
    <desc>Created with Sketch.</desc>
    <defs>
        <polygon id="path-1" points="0.5293 0.213 25.1405269 0.213 25.1405269 78.1522 0.5293 78.1522"></polygon>
    </defs>
    <g id="Page-1" stroke="none" stroke-width="1" fill="none" fill-rule="evenodd">
        <g id="Art" transform="translate(-525.000000, -535.000000)">
            <g id="Group-98" transform="translate(525.000000, 534.000000)">
                <path d="M62.7134,134.4048 C62.7984,134.1508 62.8844,133.8958 62.9694,133.6418 C62.4234,133.1898 61.9384,132.6258 61.3234,132.3038 C54.4204,128.6628 47.5934,124.8528 40.5324,121.5448 C37.4504,120.0978 33.8934,119.6278 30.5204,118.8648 C29.2954,118.5898 27.7844,119.1458 26.7254,118.6418 C23.6204,117.1648 21.6954,119.3148 19.3844,120.3998 C34.4934,123.1468 48.0464,130.5818 62.7134,134.4048 M66.8584,139.2768 C66.8454,139.0098 66.8284,138.7388 66.8124,138.4698 C64.0504,138.0078 61.2884,137.5528 58.5264,137.0808 C54.9394,136.4658 51.3654,135.7218 47.7564,135.2578 C45.5704,134.9758 43.3284,135.1048 41.1134,135.0758 C35.2734,135.0058 29.4884,135.2698 23.9474,137.6488 C25.3214,138.6008 26.4084,139.6098 27.6904,140.2038 C33.7064,142.9968 39.9734,144.8428 46.6994,144.4798 C52.2464,144.1788 57.7914,143.8088 63.3284,143.3478 C63.9904,143.2948 64.5884,142.4818 65.2154,142.0208 C65.0654,141.7288 64.9154,141.4348 64.7654,141.1438 C63.3074,141.5518 61.8544,142.2748 60.3854,142.3098 C54.5054,142.4498 48.6164,142.4148 42.7344,142.3188 C42.1824,142.3098 41.6454,141.4268 41.0994,140.9518 C41.2614,140.6848 41.4244,140.4188 41.5864,140.1538 C50.1634,142.2208 58.5444,141.2228 66.8584,139.2768 M74.9844,140.2638 C72.4604,141.3708 69.8084,142.5648 67.1284,143.6938 C65.6454,144.3188 64.1404,145.2158 62.5964,145.3298 C55.8354,145.8318 49.0004,146.7778 42.3014,146.2278 C36.5624,145.7578 30.5924,144.6258 25.7274,140.7568 C24.4874,139.7728 22.8504,139.3028 21.5374,138.3928 C20.3164,137.5458 20.3334,136.7848 21.9584,136.1758 C29.0864,133.5128 36.4484,132.7708 43.9894,133.1508 C46.2014,133.2628 48.4254,133.1678 50.6424,133.1678 C50.6794,132.8988 50.7174,132.6278 50.7524,132.3568 C45.6624,130.5538 40.5614,128.7748 35.4814,126.9408 C32.1474,125.7408 28.8924,124.2718 25.4984,123.2848 C22.9514,122.5428 20.2284,122.4178 17.6054,121.9198 C16.9784,121.7988 16.0064,121.3418 15.9424,120.9258 C15.8554,120.3498 16.3114,119.4498 16.8194,119.0628 C19.5074,117.0188 22.6454,116.4768 25.9504,116.6458 C26.8004,116.6888 27.6544,116.8158 28.5014,116.7728 C33.6604,116.5058 38.2374,118.4128 42.7094,120.6148 C47.7294,123.0868 52.7154,125.6268 57.6584,128.2478 C61.5004,130.2838 65.2244,132.5468 69.0644,134.5908 C70.2124,135.2008 71.5584,135.4638 72.8384,135.7888 C75.1924,136.3878 75.5844,137.9518 74.9844,140.2638" id="Fill-1" fill="#FEFEFE"></path>
                <path d="M416.8907,82.0454 C417.0907,82.2914 417.2867,82.5334 417.4827,82.7784 C416.8867,83.1874 416.3407,83.8274 415.6867,83.9624 C413.3447,84.4454 410.9487,84.6914 408.6017,85.1524 C405.6677,85.7274 402.7547,86.4254 399.8377,87.0694 C397.9377,87.4874 396.0337,87.9044 394.1327,88.3234 C405.0507,91.2624 428.4097,83.3244 434.3857,74.9874 C433.8347,74.9344 433.3017,74.7374 432.8567,74.8624 C430.6807,75.4744 428.5387,76.6884 426.3717,76.7264 C421.5627,76.8114 416.9917,77.7924 412.3107,78.7054 C407.6567,79.6134 403.5177,81.6534 399.1127,83.0654 C397.6587,83.5294 396.3747,84.5294 395.0117,85.2854 C395.1407,85.6384 395.2707,85.9894 395.3957,86.3424 C402.5637,84.9104 409.7267,83.4794 416.8907,82.0454 M394.6867,68.5954 C395.5577,66.6414 396.1497,64.4904 397.3497,62.7674 C402.4337,55.4664 408.8977,49.5794 416.4497,44.8744 C417.4237,44.2664 418.2487,43.4204 419.1877,42.7534 C419.5787,42.4744 420.1587,42.1544 420.5407,42.2594 C420.8747,42.3494 421.0537,43.0074 421.2917,43.4224 C421.3287,43.4864 421.3087,43.5914 421.2997,43.6744 C420.6087,50.5594 419.6197,57.5684 415.7237,63.3054 C412.3487,68.2744 407.6937,72.3854 403.5047,76.7844 C402.1627,78.1984 400.5167,79.3304 399.0497,81.0514 C400.9427,80.6374 402.8837,80.3654 404.7217,79.7744 C407.2507,78.9614 409.6347,77.6304 412.2027,77.0244 C415.1197,76.3364 418.1917,76.3494 421.1457,75.7964 C425.2917,75.0244 429.4017,74.0334 433.5107,73.0854 C435.5277,72.6214 437.5197,72.0414 439.5237,71.5144 C439.7067,71.8084 439.8947,72.1024 440.0817,72.3964 C437.4277,74.8774 434.9607,77.6074 432.0647,79.7704 C429.2387,81.8834 426.0677,83.6004 422.8837,85.1464 C420.3077,86.3964 417.5157,87.2354 414.7657,88.0694 C411.4557,89.0714 408.0937,89.8804 404.7467,90.7644 C404.1807,90.9134 403.6007,91.1244 403.0217,91.1264 C397.6587,91.1554 392.2897,91.1434 386.7857,91.1434 C386.1727,87.5024 386.6227,84.1714 388.2647,80.8934 C389.5897,78.2494 390.4407,75.3604 391.7487,72.7044 C392.4947,71.1834 393.7417,69.9034 394.7617,68.5184 C395.3207,71.4644 392.9737,73.3604 392.1077,75.7904 C391.2897,78.0824 390.2447,80.2954 389.2987,82.5414 C389.5397,82.6394 389.7777,82.7354 390.0197,82.8334 C392.2487,79.8574 394.6577,76.9984 396.6197,73.8574 C397.4337,72.5564 397.9837,72.4474 399.1127,72.9734 L399.0587,72.9334 C398.9087,73.4934 398.9117,74.1774 398.5827,74.5944 C397.1197,76.4304 395.5157,78.1524 394.0707,80.0054 C393.7327,80.4394 393.8287,81.2104 393.7037,81.9414 C396.6697,79.9514 399.5957,78.5404 401.8047,76.3954 C406.5307,71.8004 411.5857,67.4644 414.7827,61.4644 C417.2287,56.8764 418.3497,51.9564 419.2787,46.9394 C419.3407,46.5894 419.1197,46.1874 418.9537,45.4664 C417.9457,45.9884 417.0867,46.3024 416.3867,46.8244 C414.9697,47.8814 413.6117,49.0244 412.2697,50.1774 C409.2057,52.8094 405.9257,55.2474 403.1887,58.1854 C400.9427,60.5944 399.4127,63.6634 397.4247,66.3304 C396.7327,67.2514 395.6127,67.8494 394.6867,68.5954" id="Fill-3" fill="#FEFEFE"></path>
                <path d="M124.3282,144.4214 L124.3742,144.4694 C124.9512,144.1234 125.5262,143.4844 126.1062,143.4774 C130.1102,143.4434 134.1182,143.5634 138.1242,143.5774 C138.9872,143.5814 139.8542,143.3594 141.0162,143.2004 C138.5962,141.7694 136.7832,140.2144 134.6862,139.5494 C128.4812,137.5864 122.2512,135.4904 115.8702,134.3534 C108.3612,133.0134 100.9842,134.8824 93.9082,137.4764 C92.4832,137.9974 91.4332,139.5434 89.7702,141.0064 C92.9622,141.6394 95.3792,141.7414 97.4752,142.6144 C102.0302,144.5114 106.6132,146.2304 111.3242,147.7384 C117.9422,149.8584 124.6262,150.7624 131.5092,150.7624 C134.3992,150.7604 137.3122,150.6164 140.1732,150.9224 C143.5132,151.2764 146.8092,152.0394 150.1202,152.6504 C151.6272,152.9254 153.1102,153.3644 154.6232,153.5354 C155.9632,153.6854 157.3322,153.5674 158.6862,153.5674 C158.7282,153.2334 158.7692,152.9014 158.8112,152.5684 C156.6782,151.9034 154.5482,151.2274 152.4112,150.5874 C151.8522,150.4204 151.2192,150.4724 150.6912,150.2534 C147.7392,149.0224 144.8112,147.7324 141.8672,146.4784 C141.0022,146.1084 140.1332,145.5734 139.2312,145.4964 C134.2692,145.0734 129.2982,144.7674 124.3282,144.4214 M84.5602,145.1494 C83.4442,142.6644 85.9862,142.4664 87.2152,141.4254 C87.6132,141.0854 88.3322,140.9834 88.5452,140.5834 C90.7952,136.3174 94.8142,135.2724 99.0762,134.0654 C103.7082,132.7544 108.2982,131.7394 113.0572,132.2234 C116.3022,132.5524 119.4982,133.4134 122.6922,134.1384 C125.2602,134.7224 127.8582,135.2774 130.3272,136.1674 C133.9922,137.4884 137.5562,139.0974 141.1642,140.5784 C147.7012,143.2604 154.1942,146.0504 160.7912,148.5714 C164.1402,149.8534 167.6822,150.6244 171.1182,151.6894 C171.6052,151.8414 172.2302,152.2784 172.3392,152.6994 C172.4342,153.0564 171.9642,153.6974 171.5762,154.0104 C170.8222,154.6254 169.9432,155.5654 169.1282,155.552533 C165.0622,155.4854 160.9992,155.1564 156.9362,154.9084 C156.6072,154.8884 156.2822,154.7454 155.9522,154.7124 C152.3352,154.3484 148.6072,154.4314 145.1252,153.5454 C138.7162,151.9144 132.1762,153.6084 125.9062,152.4434 C121.3762,151.6004 116.6502,151.9434 112.2282,149.7864 C107.6172,147.5424 102.6012,146.0574 97.6502,144.6124 C94.8812,143.8074 91.8932,143.5254 88.9952,143.4734 C87.5992,143.4474 86.1842,144.4984 84.5602,145.1494" id="Fill-5" fill="#FEFEFE"></path>
                <path d="M107.5943,162.2934 C107.6063,162.0054 107.6193,161.7164 107.6313,161.4264 C105.0313,160.5384 102.3933,159.7424 99.8383,158.7354 C97.0463,157.6364 94.1293,156.6504 91.6493,155.0294 C89.6243,153.7084 87.8153,153.2564 85.6273,153.8044 C85.2363,156.3844 85.9803,157.2574 87.9363,158.9094 C89.4783,160.2114 90.8993,160.8534 92.9123,160.9684 C97.8153,161.2494 102.7013,161.8324 107.5943,162.2934 M59.4483,159.8304 C58.8423,160.4244 58.3313,161.0404 57.7063,161.5144 C54.1613,164.2034 54.9393,170.9484 59.2943,172.9554 C62.8783,174.6044 66.2603,176.6494 70.3503,177.5244 C74.8713,178.4934 79.3143,178.5154 83.6443,177.9914 C88.9323,177.3504 94.0333,175.2824 99.3013,174.2954 C105.0353,173.2184 109.7153,170.0864 114.6913,167.3294 C113.4373,167.0814 112.2033,166.9394 111.0133,167.1064 C106.8983,167.6844 102.8143,168.4854 98.6883,168.9674 C96.3293,169.2424 93.9143,168.9904 91.5293,169.0964 C85.6233,169.3564 79.7563,169.0794 74.2503,166.7564 C69.2543,164.6474 64.4113,162.1684 59.4483,159.8304 M112.8993,163.8914 C108.5963,163.8914 104.2893,163.9894 99.9923,163.8644 C95.5063,163.7344 91.0583,162.8594 87.1903,160.6504 C84.9823,159.3914 82.7563,157.4154 83.3523,154.0544 C83.6343,152.4664 84.3313,151.9354 85.8673,151.5584 C89.1823,150.7434 91.5273,152.9414 94.0923,154.0644 C99.5963,156.4714 104.9353,159.2174 111.0243,159.8784 C115.3493,160.3474 119.6713,160.8324 124.2343,161.3344 C125.4013,164.1874 122.6423,165.3874 120.8903,166.5104 C116.6083,169.2544 112.1913,171.8954 107.5373,173.9114 C103.8233,175.5204 99.6973,176.2014 95.7293,177.1974 C91.4723,178.2674 87.2263,179.5154 82.8943,180.1214 C80.1183,180.5094 77.1843,180.0044 74.3533,179.6544 C72.1793,179.3864 70.0773,178.5684 67.9063,178.2794 C63.4243,177.6834 59.3603,175.6044 56.2643,172.8174 C51.7823,168.7794 52.4633,161.0224 58.9983,158.0654 C59.9233,157.6474 61.6143,158.6014 62.8223,159.1864 C66.4873,160.9684 69.9663,163.2034 73.7553,164.6444 C77.0473,165.8924 80.6433,166.3814 84.1373,167.0414 C86.4363,167.4774 88.8163,167.9814 91.1163,167.8164 C96.3573,167.4434 101.5723,166.7044 106.7943,166.0644 C108.8863,165.8064 110.9633,165.4144 113.0493,165.0854 C112.9993,164.6894 112.9493,164.2894 112.8993,163.8914" id="Fill-7" fill="#FEFEFE"></path>
                <path d="M378.5752,119.7026 C379.6842,118.7606 380.6792,117.6246 381.9222,116.9206 C384.4522,115.4806 387.0732,114.1806 389.7402,113.0096 C391.2992,112.3236 393.5192,112.4846 394.5612,111.4096 C397.2832,108.5966 400.5092,106.6876 403.9132,104.9976 C405.4382,104.2366 407.1722,103.8856 408.8102,103.3456 C408.9232,103.6206 409.0352,103.8926 409.1472,104.1666 C407.7522,104.9536 406.3642,105.7656 404.9472,106.5206 C401.1502,108.5396 397.5162,110.8056 394.8792,114.2716 C393.9322,115.5176 393.5612,117.1896 392.7322,118.5486 C391.7362,120.1696 390.6152,121.7296 389.4022,123.1986 C385.1382,128.3706 380.8222,133.4986 376.5122,138.6306 C372.3072,143.6436 366.7572,146.5366 360.7062,148.6406 C355.8672,150.3246 351.0252,152.0016 346.2032,153.7416 C345.6402,153.9456 345.1112,154.4586 344.7362,154.9546 C342.2732,158.1946 337.8642,159.5076 336.2142,163.5576 C336.1512,163.7146 335.7972,163.8076 335.5682,163.8306 C335.2432,163.8646 334.9092,163.8066 333.9052,163.7456 C334.8462,161.2696 335.5432,158.9596 336.5762,156.8126 C338.5022,152.8066 340.2482,148.6346 342.7612,145.0116 C345.4402,141.1456 348.7622,137.6726 352.1002,134.3216 C355.9712,130.4326 360.3932,127.2016 365.4062,124.8406 C368.6652,123.3086 371.8292,121.5716 375.1162,120.1106 C376.1542,119.6496 377.4542,119.7896 378.6342,119.6566 C375.8462,121.0756 372.9952,122.3776 370.2912,123.9336 C366.2362,126.2656 361.8852,128.3076 358.3802,131.3106 C352.1632,136.6346 346.2952,142.4606 342.2402,149.7036 C341.0902,151.7556 338.9062,153.6296 339.9982,156.8056 C341.1932,155.9396 341.8652,154.3206 343.0272,153.8066 C348.8412,151.2226 354.7332,148.7826 360.7012,146.5756 C366.6942,144.3606 372.0082,141.0996 376.3802,136.5366 C379.1132,133.6856 381.2302,130.2566 383.6602,127.1136 C385.1732,125.1596 386.7482,123.2576 388.2942,121.3336 C388.1782,121.2446 388.0642,121.1546 387.9522,121.0646 C378.4422,128.1996 368.9362,135.3366 359.4272,142.4736 C359.2342,142.3536 359.0392,142.2356 358.8432,142.1186 C359.0552,141.5356 359.1012,140.7566 359.5132,140.3996 C361.5722,138.6116 363.6772,136.8636 365.8612,135.2296 C370.3992,131.8276 375.0422,128.5666 379.5542,125.1326 C383.1552,122.3936 386.6522,119.5126 390.1322,116.6166 C390.5442,116.2726 390.5492,115.4326 390.8902,114.3476 C389.8362,114.7716 389.3732,114.9426 388.9232,115.1406 C385.4722,116.6596 382.0222,118.1816 378.5752,119.7026" id="Fill-9" fill="#FEFEFE"></path>
                <path d="M131.3555,43.4682 C130.1575,43.9222 129.0225,43.9942 128.5305,44.5952 C125.6045,48.1642 121.7435,50.8222 119.4935,55.1152 C116.7655,60.3192 114.9865,65.8052 114.1655,71.4582 C113.4155,76.6402 113.5845,82.0232 113.9395,87.2762 C114.1445,90.3222 115.1005,93.4932 116.4535,96.2502 C118.7155,100.8572 121.4435,105.2542 124.2195,109.5832 C125.8795,112.1742 128.0045,114.4662 129.9225,116.8932 C121.1245,92.2682 121.5285,67.9952 131.3555,43.4682 M134.8315,40.9522 C134.2355,42.5452 133.8975,43.8162 133.3105,44.9592 C130.9765,49.5102 128.9865,54.1172 128.2555,59.2792 C127.6175,63.7762 126.3755,68.1852 125.4085,72.6332 C125.3375,72.9622 125.3135,73.3132 125.3255,73.6512 C125.6545,81.5712 125.5545,89.5382 126.4465,97.3942 C127.3465,105.3192 130.8895,112.5342 134.7435,119.4442 C135.9985,121.6922 138.5465,123.1802 140.1925,125.2622 C141.6035,127.0432 142.6495,129.1332 143.6995,131.1682 C144.2995,132.3332 144.5845,133.6582 145.0125,134.9112 C144.7555,135.0662 144.4995,135.2222 144.2415,135.3752 C143.4335,134.4672 142.1245,133.6652 141.8995,132.6292 C140.8825,127.9472 136.6105,126.1592 133.8105,123.0922 C131.2845,120.3252 128.6675,117.6202 125.9085,115.0892 C121.7295,111.2592 119.2665,106.2952 116.6865,101.4392 C115.1565,98.5572 114.0895,95.4062 113.0235,92.3062 C110.8375,85.9482 111.7605,79.3072 112.1685,72.8902 C112.5685,66.6032 114.4275,60.3592 117.2945,54.6142 C118.1905,52.8152 119.7075,51.2782 121.1245,49.7942 C123.4415,47.3602 126.0965,45.2272 128.2495,42.6652 C129.9935,40.5922 132.0455,41.0682 134.8315,40.9522" id="Fill-11" fill="#FEFEFE"></path>
                <path d="M361.4141,74.48 C361.2471,69.931 361.0811,65.384 360.9101,60.835 C360.9051,60.751 360.8811,60.667 360.8681,60.584 C360.2101,55.889 359.0561,51.199 359.0141,46.498 C358.9381,38.707 359.5341,30.908 359.9561,23.119 C360.0681,20.994 359.2051,19.715 357.4301,18.88 C350.5871,25.227 350.4121,33.545 350.7041,42.584 C348.1201,40.548 346.1611,38.751 343.9651,37.321 C338.9391,34.058 338.2601,33.876 336.1771,34.329 C348.1531,45.589 357.5971,58.302 361.4141,74.48 M348.4951,37.146 C349.3741,28.89 350.2791,20.931 358.2931,16.368 C360.8591,18.484 362.1511,20.812 361.9801,23.968 C361.5601,31.625 360.9681,39.288 361.0391,46.944 C361.0811,51.749 362.1931,56.543 362.8231,61.342 C362.8561,61.596 362.8971,61.85 362.9101,62.105 C363.2771,70.229 363.7941,78.349 363.9321,86.478 C363.9941,90.093 363.4321,93.744 362.8481,97.33 C362.6981,98.252 361.4011,98.991 360.6311,99.816 C360.2681,99.611 359.9051,99.407 359.5471,99.205 C359.9351,97.286 360.4181,95.377 360.6811,93.442 C360.9011,91.764 360.8481,90.051 360.9511,88.357 C361.3771,81.312 359.4971,74.815 357.1341,68.214 C355.4421,63.495 353.8121,58.834 351.1711,54.595 C346.7991,47.584 340.9391,41.822 335.1551,36.012 C334.5841,35.44 333.8671,34.971 333.4461,34.31 C333.0011,33.601 332.8211,32.72 332.5251,31.916 C333.5551,31.614 334.8261,30.77 335.5681,31.103 C339.3311,32.792 342.9481,34.799 346.6371,36.654 C347.1831,36.927 347.8371,36.979 348.4951,37.146" id="Fill-13" fill="#FEFEFE"></path>
                <path d="M65.0782,120.9048 C66.1142,121.4028 67.3202,121.7008 68.1522,122.4278 C71.2872,125.1778 74.6972,127.2958 78.8512,128.1228 C79.6262,128.2768 80.3022,128.9228 81.0252,129.3428 C79.6282,131.5558 79.0042,131.6528 75.5362,129.8918 C70.3312,127.2498 65.0992,124.6468 60.0002,121.8108 C57.7602,120.5648 55.8432,118.7458 53.7282,117.2598 C49.1902,114.0718 44.8412,110.5188 39.9942,107.8918 C35.1192,105.2518 29.8892,102.8728 24.5252,101.6358 C19.1842,100.4068 13.4862,100.7368 7.9432,100.3948 C7.2682,100.3548 6.5892,100.3898 5.0152,100.3898 C5.7552,99.3878 6.0382,98.6048 6.5782,98.3318 C10.3142,96.4508 14.0902,94.6318 18.9572,95.3438 C18.6302,94.3918 18.5862,93.6608 18.2032,93.2418 C15.2422,90.0038 11.6812,87.6258 7.5782,86.0448 C6.6682,85.6918 5.8222,85.1718 4.6362,84.5708 C5.3302,83.9458 5.8132,83.1278 6.3412,83.0998 C8.7142,82.9708 11.1642,82.7178 13.4652,83.1628 C16.8942,83.8228 20.3202,84.7818 23.5662,86.0668 C27.8862,87.7778 32.4182,89.3808 36.1592,92.0248 C40.9802,95.4328 45.2392,99.6908 49.4922,103.8378 C53.0142,107.2688 56.1392,111.0988 59.5062,114.6908 C61.2272,116.5288 63.1032,118.2188 64.8742,120.0098 C65.0782,120.2158 65.0652,120.6358 65.1452,120.9528 C62.9492,121.4948 62.0572,119.6398 60.9442,118.4808 C57.1642,114.5478 53.7052,110.2928 49.7922,106.5028 C45.0852,101.9448 40.2972,97.3898 35.0522,93.4978 C31.0282,90.5108 26.5502,87.9098 21.3742,87.0448 C19.5162,86.7338 17.6972,86.1968 15.8532,85.7858 C14.3442,85.4508 12.8232,85.1528 10.6872,84.7088 C15.6322,88.7338 19.8912,92.2038 24.4942,95.9508 C20.6412,96.9148 16.9572,95.1018 14.2482,97.8718 C17.2072,98.3878 20.1072,98.7648 22.9392,99.4318 C24.8462,99.8828 26.6552,100.7368 28.5052,101.4198 C32.4222,102.8618 36.6272,103.8058 40.1822,105.8708 C45.9622,109.2318 51.3382,113.3008 56.8432,117.1278 C58.5812,118.3338 60.2772,119.6208 61.8312,121.0488 C63.0882,122.2048 64.0422,122.0008 65.0782,120.9048" id="Fill-15" fill="#FEFEFE"></path>
                <path d="M353.5606,107.9331 C353.9766,107.4701 354.7476,107.0121 354.7556,106.5431 C354.806687,103.5661 354.8976,100.5611 354.5646,97.6151 C354.2146,94.5181 353.3436,91.4841 352.8016,88.4051 C352.3556,85.8541 352.1186,83.2701 351.6806,80.7201 C351.3886,79.0051 351.0766,77.2631 350.4766,75.6441 C349.3006,72.4701 347.8966,69.3821 346.6256,66.2451 C344.4966,60.9871 340.9706,56.5881 336.9326,52.8771 C332.1726,48.5011 326.6646,44.9451 321.4796,41.0321 C321.2716,41.1621 321.0586,41.2941 320.8456,41.4251 C321.4136,42.7321 321.9706,44.0421 322.5456,45.3451 C324.0676,48.8121 325.9176,52.1751 327.0426,55.7651 C328.4346,60.2001 329.1976,64.8251 330.2766,69.3591 C330.6766,71.0311 331.1066,72.7071 331.6726,74.3291 C333.1906,78.6591 335.0486,82.8911 336.2946,87.2931 C337.8446,92.7591 341.0286,97.2101 344.4206,101.5211 C346.5546,104.2371 349.2176,106.5401 351.7016,108.9771 C352.0926,109.3631 352.7766,109.4521 353.3276,109.6791 C353.4176,109.0791 353.5146,108.4811 353.6106,107.8831 L353.5606,107.9331 Z M366.2116,119.7241 C362.4286,120.1871 359.3396,118.5181 357.7696,115.5551 C357.4146,114.8881 356.8066,114.2011 356.1436,113.8751 C352.3186,112.0061 349.2966,109.3121 346.2296,106.3081 C341.2666,101.4471 337.7486,95.8621 334.9566,89.6941 C333.8396,87.2381 333.1026,84.6021 332.3066,82.0141 C330.9226,77.4981 329.5726,72.9721 328.3016,68.4261 C327.1806,64.4051 326.4596,60.2471 325.0466,56.3361 C323.5386,52.1521 321.3836,48.2051 319.5956,44.1201 C318.7996,42.2921 318.2046,40.3771 317.5166,38.5011 C317.7836,38.2641 318.0496,38.0271 318.3206,37.7891 C320.2376,38.6771 322.3546,39.2871 324.0416,40.5001 C329.4766,44.4151 335.1866,48.1101 339.9366,52.7581 C343.1746,55.9251 346.1966,59.7041 347.7176,64.3671 C348.9346,68.0841 350.8926,71.5491 352.3426,75.1981 C353.0316,76.9191 353.3896,78.7901 353.7316,80.6231 C354.1806,83.0621 354.4646,85.5291 354.8236,87.9841 C355.4686,92.4301 356.1156,96.8761 356.7646,101.3211 C357.1356,103.8701 357.4236,106.4351 357.8946,108.9661 C358.6646,113.1091 359.7486,117.0721 364.7706,118.0411 C365.0456,118.0931 365.2746,118.4551 365.4916,118.7041 C365.6916,118.9351 365.8496,119.2021 366.2116,119.7241 L366.2116,119.7241 Z" id="Fill-17" fill="#FEFEFE"></path>
                <path d="M255.0039,57.6001 C255.1579,57.7891 255.3159,57.9791 255.4709,58.1681 C256.3619,58.0251 257.4039,58.1271 258.1169,57.6941 C261.0839,55.8801 264.0759,54.0681 266.8309,51.9611 C271.5989,48.3171 275.2619,43.6351 276.7199,37.8131 C277.7039,33.8891 277.8869,29.6671 277.7749,25.5981 C277.6749,21.9751 277.2949,18.2241 274.9409,15.0781 C271.3899,10.3391 267.2519,6.9031 260.8469,6.7971 C257.3089,6.7371 254.2199,7.4491 250.7329,9.8811 C251.9829,13.1401 253.5159,16.6161 254.6529,20.2161 C255.7709,23.7471 257.2039,27.4071 257.1999,31.0071 C257.1919,36.1001 256.1879,41.2301 255.2079,46.2661 C254.7209,48.7561 253.4619,51.1341 252.3199,53.4431 C251.1079,55.8851 249.5949,58.1731 248.2769,60.5611 C248.0609,60.9531 248.1609,61.5191 248.0569,62.5651 C249.0569,62.0781 249.9529,61.9341 250.3029,61.4191 C252.2289,58.6061 254.0659,55.7271 255.8499,52.8221 C260.1629,45.7931 262.9459,38.3221 262.6089,29.8881 C262.5669,28.8071 263.4179,27.6921 263.8559,26.5921 C263.8259,37.7841 261.5379,48.2911 255.0039,57.6001 M243.5429,68.1911 C241.8049,65.1451 243.6549,63.1161 245.2809,61.5571 C248.8489,58.1461 250.2279,53.6491 252.1079,49.3861 C253.4529,46.3271 254.4909,43.2161 254.4079,39.7321 C254.3459,37.2671 255.3619,34.7691 255.2749,32.3101 C255.0699,26.5001 253.7079,20.9291 250.8189,15.7921 C250.1409,14.5851 249.4979,13.2711 249.2529,11.9311 C248.7239,9.0711 250.0399,7.2931 253.6409,5.9721 C258.1839,4.3091 262.5179,4.6621 267.1679,6.4431 C270.4689,7.7091 272.8229,9.6811 275.2029,11.9731 C276.8329,13.5371 277.7869,15.2901 277.9199,17.6011 C277.9909,18.8581 278.7499,20.0621 278.9329,21.3291 C279.3459,24.1421 279.8419,26.9761 279.8619,29.8031 C279.9379,38.8401 276.4199,46.4291 269.2769,51.8591 C264.6129,55.4041 259.2959,58.0951 254.2159,61.0731 C252.1279,62.2981 249.8489,63.1991 247.7519,64.4071 C247.0569,64.8051 246.2689,65.6651 246.1929,66.3871 C245.9889,68.3581 245.0099,68.6261 243.5429,68.1911" id="Fill-19" fill="#FEFEFE"></path>
                <g id="Group-23" transform="translate(148.000000, 0.787000)">
                    <mask id="mask-2" fill="white">
                        <use xlink:href="#path-1"></use>
                    </mask>
                    <g id="Clip-22"></g>
                    <path d="M13.6333,6.3492 C13.6333,8.7512 13.7873,10.7472 13.5953,12.7102 C13.3063,15.7112 12.8163,18.6952 12.3333,21.6722 C12.0583,23.3752 11.6833,25.0632 11.2623,26.7362 C10.7493,28.7852 10.1013,30.8012 9.5863,32.8502 C8.7903,36.0212 8.1073,39.2242 7.2823,42.3872 C6.3943,45.7872 5.3653,49.1532 4.4613,52.5492 C3.7893,55.0752 3.3003,57.6482 2.5853,60.1612 C2.0353,62.0992 2.6143,63.5552 4.0583,63.7482 C4.5863,61.2412 4.7603,58.6072 5.7073,56.2932 C7.3923,52.1842 8.7653,48.0962 8.5843,43.5952 C8.5453,42.6102 8.7073,41.6162 8.7763,40.6282 C10.2723,47.0342 9.3283,53.0932 6.9693,59.0482 C6.0713,61.3202 5.8323,63.8512 5.2903,66.2622 C5.5963,66.4042 5.9033,66.5432 6.2073,66.6832 C6.6533,66.0782 7.1363,65.4972 7.5303,64.8602 C7.8673,64.3142 8.0403,63.6652 8.3923,63.1302 C10.6643,59.6752 13.3213,56.4202 15.1713,52.7572 C18.0083,47.1422 21.1223,41.4532 22.5933,35.4232 C24.1933,28.8552 23.0273,21.9442 20.2673,15.6232 C19.0093,12.7382 17.0793,10.1392 15.3833,7.4552 C15.1233,7.0452 14.4833,6.8722 13.6333,6.3492 M0.5293,77.7832 C1.0183,76.4972 1.7583,75.2432 1.9313,73.9132 C2.1333,72.3732 1.8603,70.7672 1.7453,69.1922 C1.6973,68.5452 1.4233,67.9102 1.4163,67.2682 C1.3813,64.1992 1.1733,61.1072 1.4703,58.0652 C1.7143,55.5832 2.5693,53.1582 3.1833,50.7132 C3.5773,49.1402 4.0813,47.5902 4.4363,46.0082 C5.5083,41.2452 6.1983,36.3652 7.6653,31.7292 C9.2573,26.6932 9.9903,21.5792 10.8493,16.4152 C11.5163,12.4112 11.9453,8.6722 10.8453,4.7242 C10.5183,3.5552 11.1413,2.1212 11.4163,0.2122 C16.7833,4.7172 20.1073,9.7312 22.6103,15.0482 C25.5973,21.4042 25.3453,28.4722 24.8063,35.3522 C24.6473,37.3572 23.5433,39.3222 22.6933,41.2262 C20.7553,45.5812 18.8633,49.9672 16.6483,54.1832 C15.3333,56.6832 13.3413,58.8172 11.8333,61.2282 C8.6533,66.3032 4.4943,70.7802 2.4023,76.5372 C2.1773,77.1542 1.5303,77.6162 1.0833,78.1522 C0.8973,78.0292 0.7143,77.9062 0.5293,77.7832" id="Fill-21" fill="#FEFEFE" mask="url(#mask-2)"></path>
                </g>
                <path d="M374.0703,75.2339 C374.1543,75.1949 374.2413,75.1529 374.3293,75.1109 C376.3623,69.9439 378.0843,64.6259 380.5083,59.6479 C383.4933,53.5219 387.1473,47.7269 390.3403,41.6969 C392.2953,38.0049 394.1113,34.2129 395.6123,30.3199 C396.1823,28.8399 395.9543,26.9029 395.6323,25.2599 C395.2373,23.2139 392.8283,21.7439 391.3113,22.6429 C389.5103,23.7139 387.7733,25.1189 386.4763,26.7529 C384.7683,28.9139 383.2683,31.3239 382.1263,33.8329 C380.6303,37.1259 379.4843,40.5869 378.3633,44.0349 C377.7963,45.7879 377.8343,47.7439 377.2253,49.4749 C375.3833,54.6969 375.1503,60.0749 375.2503,65.5179 C375.2623,66.3429 375.0073,67.1709 374.9083,67.9999 C374.6213,70.4109 374.3453,72.8229 374.0703,75.2339 M369.9033,108.6399 C368.6483,105.7659 368.6443,103.0579 369.8903,100.2389 C370.6743,98.4689 370.9693,96.4029 371.1073,94.4419 C371.5663,87.7889 371.7083,81.1079 372.2703,74.4649 C372.6033,70.5639 373.6333,66.7299 374.1083,62.8359 C374.3953,60.4789 374.2703,58.0689 374.2543,55.6829 C374.2203,51.0479 375.5833,46.7289 377.0843,42.4239 C378.2503,39.0839 379.1043,35.6209 380.4513,32.3579 C382.6513,27.0279 386.7393,23.1869 391.3023,19.8729 C392.8023,18.7809 395.4033,20.7389 396.8243,23.3099 C398.8663,27.0109 397.8533,30.6449 396.2613,33.8309 C392.4323,41.4929 387.9983,48.8459 384.0063,56.4309 C381.6133,60.9839 379.4093,65.6619 377.4923,70.4349 C376.6213,72.6039 376.6833,75.1419 376.2833,77.5069 C375.6453,81.2789 374.9663,85.0449 374.3293,88.8159 C374.2293,89.3989 374.2623,90.0049 374.2463,90.6009 C374.0913,96.3569 373.3533,101.9659 370.2453,107.0079 C369.9693,107.4549 370.0073,108.0919 369.9033,108.6399" id="Fill-24" fill="#FEFEFE"></path>
                <path d="M162.2456,172.7905 C162.2996,172.4845 162.3536,172.1785 162.4056,171.8745 C166.5816,172.1225 170.7556,172.4825 174.9346,172.5865 C179.9406,172.7115 185.2626,171.0845 186.6746,169.2115 C182.2786,168.9615 177.8936,168.8235 173.5306,168.4375 C165.6586,167.7415 157.8316,166.1205 149.8846,167.4915 C146.0586,168.1525 142.3496,169.1565 139.2036,171.5675 C151.9646,176.5585 164.7456,179.8675 177.8356,174.9955 C172.8436,174.2895 167.5426,173.5385 162.2456,172.7905 M204.0316,163.0565 C203.1316,163.8895 202.3526,164.9295 201.3196,165.5225 C196.4766,168.2985 191.6596,171.1405 186.6536,173.5995 C180.7946,176.4805 174.6146,178.2565 167.9986,178.8605 C162.8956,179.3275 157.9076,179.3335 152.9766,178.1755 C149.3456,177.3245 145.8826,175.7235 142.2376,174.9685 C139.8046,174.4645 137.1826,174.8955 134.6446,174.8335 C133.7946,174.8115 132.9486,174.5585 131.6196,174.3265 C137.1366,169.2815 142.8706,166.3975 149.6496,165.4065 C157.5386,164.2515 165.2506,165.6915 173.0346,166.3995 C180.5776,167.0855 188.1706,167.8565 195.5846,165.4395 C197.0766,164.9515 198.4266,164.0505 199.8816,163.4355 C201.0486,162.9455 202.2736,162.6025 203.4736,162.1925 C203.6576,162.4805 203.8446,162.7685 204.0316,163.0565" id="Fill-26" fill="#FEFEFE"></path>
                <path d="M393.7071,159.895 C394.4621,159.785 395.2821,159.906 395.5161,159.588 C396.6701,158.034 397.8881,156.463 398.6841,154.716 C400.9421,149.733 405.1391,145.868 406.5981,140.398 C407.4561,137.182 408.9561,134.142 410.1031,131 C411.4151,127.408 412.6521,123.791 413.9701,120.05 C413.5691,120.032 413.0441,119.881 412.9521,120.019 C410.5021,123.741 407.6391,127.287 405.8221,131.304 C404.3171,134.63 404.0551,138.52 403.2381,142.177 C403.4171,142.212 403.2091,142.236 403.1171,142.142 C400.2131,139.218 402.5471,135.93 403.3431,133.417 C404.6351,129.327 407.6511,125.81 409.6691,121.911 C410.7771,119.769 412.5611,117.694 412.0441,114.728 C410.7771,116.251 409.7851,117.547 408.6861,118.744 C407.1641,120.398 405.3011,121.798 404.0381,123.622 C401.9091,126.704 399.9251,129.929 398.2701,133.289 C396.5121,136.862 394.4701,140.549 393.8911,144.39 C393.1371,149.387 393.7071,154.582 393.7071,159.895 M419.3041,99.559 C419.3041,101.09 419.5791,102.762 419.2501,104.304 C418.4621,107.962 417.3831,111.557 416.4361,115.18 C416.0241,116.766 415.4611,118.341 415.2861,119.957 C414.6441,125.868 411.7231,131.008 409.8401,136.497 C408.9851,138.985 408.1681,141.512 407.0141,143.867 C405.5471,146.87 403.8591,149.779 402.0751,152.608 C399.7631,156.273 397.2791,159.833 394.8281,163.408 C394.4491,163.962 393.8451,164.36 393.3411,164.829 C392.8321,164.141 391.9901,163.506 391.8781,162.755 C391.6151,161.086 391.7951,159.353 391.6571,157.657 C391.4361,154.988 390.6901,152.29 390.9241,149.67 C391.2111,146.399 391.8491,143.023 393.0871,139.998 C395.0201,135.259 397.5621,130.769 399.8881,126.193 C400.2831,125.412 400.7881,124.653 401.3751,124.003 C404.8101,120.205 408.6181,116.694 411.6401,112.597 C414.5731,108.62 416.7121,104.051 419.3041,99.559" id="Fill-28" fill="#FEFEFE"></path>
                <path d="M201.0713,68.4565 C201.8333,68.2855 202.3383,68.2605 202.7633,68.0635 C205.3383,66.8805 207.9513,65.7515 210.4523,64.4225 C214.3193,62.3715 218.3703,60.6105 221.6333,57.5585 C228.3253,51.3055 233.6563,44.1285 238.2693,36.1475 C241.5913,30.4005 242.3283,24.7635 241.8993,18.5265 C240.6283,18.1655 238.9523,17.1505 238.2943,17.6065 C236.5693,18.8105 234.9983,20.4685 233.8813,22.2665 C231.1473,26.6585 228.8383,31.3135 226.1093,35.7065 C223.3873,40.0805 220.4203,44.3025 217.4533,48.5155 C214.1353,53.2325 210.8193,57.9605 207.2643,62.4965 C205.6133,64.5975 203.3963,66.2515 201.0713,68.4565 M179.6753,77.5305 C179.4443,74.9325 181.8783,75.2115 183.0343,74.8215 C188.2983,73.0535 193.7073,71.6505 198.0333,67.9225 C201.6333,64.8175 205.5883,61.9425 208.4973,58.2605 C212.1943,53.5875 215.8113,48.8335 218.7243,43.4775 C223.0713,35.4785 228.5423,28.0975 233.4023,20.3725 C234.4643,18.6855 235.4063,17.2885 237.2403,16.1305 C239.2153,14.8785 240.6453,15.8905 241.6403,16.5845 C242.8243,17.4095 243.7743,19.2185 243.9583,20.7105 C244.4543,24.7465 244.1663,28.7445 242.0823,32.4755 C239.9823,36.2355 238.4733,40.3765 236.0443,43.8915 C233.3183,47.8405 229.6343,51.1115 226.7763,54.9805 C224.2003,58.4675 220.4993,60.4585 217.2243,62.9555 C215.0283,64.6285 212.0143,65.1975 209.4313,66.4035 C207.4223,67.3435 205.5843,68.6565 203.5543,69.5355 C198.6783,71.6445 193.7193,73.5515 188.8313,75.6245 C186.2433,76.7205 183.7893,78.2015 180.8023,77.7345 C180.4693,77.6835 180.1383,77.6155 179.6753,77.5305" id="Fill-30" fill="#FEFEFE"></path>
                <path d="M94,10.6304 C93.408,12.6094 93.158,14.1934 92.483,15.5704 C89.107,22.4624 90.82,28.9464 94.163,35.1514 C96.643,39.7564 99.563,44.1244 102.356,48.5544 C103.039,49.6354 103.979,50.5544 105.177,52.0004 C105.177,50.9044 105.273,50.4254 105.163,50.0024 C103.323,42.9824 99.507,36.8854 96.08,30.6054 C95.138,28.8794 93.996,27.1674 94.571,24.3124 C98.849,32.3214 102.792,39.6984 106.994,47.5624 C105.173,34.2184 103.939,21.2594 94,10.6304 M93.281,6.2814 C96.338,10.6134 99.695,14.4184 101.922,18.7994 C104.119,23.1164 105.71,27.9174 106.609,32.6854 C108.232,41.2904 109.607,49.9974 108.905,58.8334 C108.719,61.1624 108.344,63.4964 107.811,65.7724 C107.586,66.7364 106.736,67.5554 105.781,69.0474 C105.552,67.7764 105.333,67.2444 105.385,66.7444 C106.111,59.9054 103.381,54.2044 99.822,48.6374 C96.055,42.7464 91.929,37.0484 89.608,30.3074 C88.299,26.5024 88.13,22.7334 89.028,18.9194 C89.908,15.2004 91.047,11.5414 92.11,7.8674 C92.214,7.5054 92.575,7.2174 93.281,6.2814" id="Fill-32" fill="#FEFEFE"></path>
                <path d="M288.3643,157.3003 C288.6183,157.4583 288.8723,157.6173 289.1273,157.7763 C291.5563,154.6143 293.8023,151.2913 296.4613,148.3343 C299.3323,145.1363 302.5923,142.2833 305.7883,139.1703 C305.7883,139.5933 305.9293,140.0393 305.7663,140.2273 C303.4623,142.9403 301.1663,145.6603 298.7653,148.2863 C297.4903,149.6803 295.8783,150.7793 294.6853,152.2273 C293.5403,153.6203 292.6813,155.2713 291.8053,156.8673 C291.5563,157.3273 291.6813,157.9943 291.6193,158.7553 C296.6983,154.9163 301.2323,151.0033 306.2383,147.8363 C311.3593,144.5983 313.9523,139.8063 316.0483,134.5553 C316.6353,133.0883 316.8693,131.3103 316.6853,129.7453 C316.1063,124.8073 316.0403,119.7943 314.1973,115.0183 C313.6563,113.6103 313.4263,113.2403 312.8353,113.4723 C311.7673,117.0433 310.9973,120.0923 309.9383,123.0363 C307.8303,128.9163 304.2623,133.8963 299.8703,138.2723 C296.0863,142.0353 292.8733,146.1753 290.7353,151.0823 C289.8513,153.1163 289.1473,155.2253 288.3643,157.3003 M311.0173,108.1583 C315.3733,111.3253 316.8363,115.3143 317.2183,119.9693 C317.3773,121.8713 318.4113,123.6863 318.7153,125.5953 C318.9443,127.0383 318.6733,128.5693 318.5733,130.0583 C318.5443,130.4603 318.2023,130.8613 318.2273,131.2433 C318.6233,136.5883 315.7603,140.8503 312.7563,144.5563 C310.1843,147.7303 306.3503,149.9613 302.8583,152.2873 C297.2073,156.0503 291.9933,160.1783 288.4013,166.0833 C288.1803,166.4423 286.7513,166.5943 286.5593,166.3353 C285.9973,165.5893 285.3763,164.5273 285.4973,163.6963 C285.8553,161.2863 286.4683,158.9033 287.1643,156.5633 C287.9643,153.8523 288.6053,151.0013 289.9563,148.5683 C291.6433,145.5353 293.7943,142.7063 296.0823,140.0803 C300.8293,134.6303 305.8423,129.3333 308.5593,122.5353 C310.0053,118.9253 311.3263,115.1103 311.0263,111.0363 C310.9643,110.2233 311.0173,109.4043 311.0173,108.1583" id="Fill-34" fill="#FEFEFE"></path>
                <path d="M168.0239,74.2544 C167.8029,74.8964 167.7619,75.7374 167.3199,76.1384 C166.4619,76.9134 165.3819,77.4424 164.2979,78.1324 C163.0779,77.3304 163.0109,76.6174 163.7439,74.7834 C167.7079,64.8444 173.1749,55.9154 180.8349,48.4794 C185.5059,43.9424 190.2949,39.5094 196.0789,36.2234 C199.6339,34.2054 202.8049,31.4354 205.9219,28.7374 C211.0069,24.3334 215.9029,19.7114 221.5459,15.2284 C221.2129,17.1614 221.0009,19.1284 220.5129,21.0254 C219.8709,23.5124 218.9909,25.9384 218.2499,28.4004 C217.0659,32.3164 215.4279,35.9834 213.5529,39.6524 C210.7319,45.1664 207.0889,49.9214 202.3759,53.6914 C197.3249,57.7294 192.2119,61.7564 186.0109,64.1824 C182.9269,65.3884 180.2599,67.6494 177.3759,69.3834 C176.7319,69.7714 175.9589,69.9434 175.2459,70.2164 L175.1939,70.1684 C175.5729,69.4814 175.7749,68.4994 176.3589,68.1574 C179.9489,66.0454 183.6689,64.1504 187.2569,62.0374 C190.7199,59.9974 194.2669,58.0264 197.4379,55.5894 C203.5349,50.9044 208.8399,45.4244 212.1239,38.3234 C213.8909,34.4974 215.5329,30.6054 217.0409,26.6714 C217.7079,24.9374 217.9119,23.0264 218.3249,21.1944 C218.0619,21.0494 217.8039,20.9034 217.5419,20.7554 C214.5659,23.5604 211.7739,26.5944 208.5729,29.1154 C203.5559,33.0764 198.3419,36.8104 193.0619,40.4234 C186.9779,44.5914 181.2529,49.2434 176.9109,55.1434 C173.0709,60.3604 170.3179,66.3674 166.7659,71.8164 C165.2819,74.0944 166.3739,74.1254 168.0579,74.2964 L168.0239,74.2544 Z" id="Fill-36" fill="#FEFEFE"></path>
                <path d="M243.3848,167.8618 C241.5138,167.5128 239.4838,167.5568 237.8798,166.7538 C234.9248,165.2648 232.2868,163.1648 229.3948,161.5318 C224.4438,158.7328 220.3728,154.8768 216.8088,150.6038 C212.8248,145.8268 209.8208,140.2158 204.5738,136.5458 C203.0818,135.5018 201.6318,134.0728 199.7318,134.7988 C201.6478,138.8458 203.0608,143.1008 205.4988,146.6518 C208.5828,151.1378 211.3088,156.0198 215.7048,159.4998 C219.3888,162.4128 222.6348,165.9858 227.2188,167.5808 C230.3788,168.6778 233.5538,169.8138 236.8168,170.4908 C239.3668,171.0218 242.0928,170.9538 243.3848,167.8618 M192.6098,131.3438 C194.6048,129.1548 196.5688,130.4138 197.9438,131.0428 C201.6818,132.7518 205.4948,134.5928 208.6788,137.1318 C211.6168,139.4728 213.8338,142.7448 216.2598,145.6948 C217.5798,147.2998 218.5348,149.2088 219.9018,150.7618 C221.5308,152.6218 223.2688,154.4488 225.2278,155.9338 C229.4868,159.1728 233.6868,162.6238 238.3838,165.0998 C240.6888,166.3198 244.0388,165.5648 247.4648,165.7298 C247.0148,166.7258 246.6978,167.6598 246.2018,168.4888 C244.6388,171.1168 240.1008,173.2208 237.5508,172.5158 C235.4128,171.9228 233.2788,170.7078 231.1658,170.7558 C227.7778,170.8328 225.2988,169.1518 222.6938,167.6028 C215.9338,163.5818 210.3208,158.2898 206.2118,151.5818 C203.3318,146.8788 200.9268,141.8828 198.0928,137.1478 C197.0928,135.4738 195.4558,134.1798 194.0928,132.7318 C193.6588,132.2718 193.1718,131.8678 192.6098,131.3438" id="Fill-38" fill="#FEFEFE"></path>
                <path d="M82.3335,116.7329 C86.8325,119.8499 91.3335,122.9689 95.9625,126.1759 C93.9375,128.4789 92.1785,126.9579 90.7075,126.4039 C82.1665,123.1839 76.0305,116.7309 70.1895,110.1509 C65.2325,104.5639 60.9235,98.3989 56.3345,92.4829 C52.6425,87.7239 49.6425,82.4569 47.9915,76.7589 C46.7665,72.5339 44.7205,67.7969 48.5275,63.4549 C50.1045,61.6549 51.5555,61.4919 53.8595,62.0109 C58.5545,63.0669 59.8815,67.1339 61.6655,70.4619 C63.3755,73.6569 63.9325,77.4739 64.9615,81.0289 C66.3685,85.8959 67.0625,91.1179 69.3045,95.5559 C71.8755,100.6399 73.5625,106.3319 77.7425,110.5429 C79.1225,111.9319 80.5145,113.3199 81.7725,114.8139 C82.1895,115.3079 82.2105,116.1349 82.4105,116.8099 C81.5645,116.4589 80.6185,116.2439 79.8845,115.7289 C76.2135,113.1509 75.1315,108.6089 72.2125,105.4439 C71.7445,104.9329 71.3855,104.2639 71.1495,103.6059 C69.6815,99.5129 68.2375,95.4129 66.8335,91.2969 C65.1655,86.4089 63.3075,81.5689 61.9735,76.5879 C60.6795,71.7439 58.7665,67.4279 54.8225,64.1859 C53.3305,62.9589 50.4585,63.2949 49.7425,65.0019 C49.1255,66.4759 48.4755,68.1829 48.6525,69.6939 C48.9895,72.5689 49.6045,75.4989 50.6595,78.1869 C52.0695,81.7829 53.8305,85.2779 55.7765,88.6199 C57.5815,91.7159 59.8065,94.5689 61.8855,97.4989 C63.8775,100.3029 65.6955,103.2809 68.0015,105.8039 C71.9105,110.0779 76.1325,114.0659 80.2625,118.1349 C80.7015,118.5689 81.4015,118.7359 82.3335,119.2029 L82.3335,116.7329 Z" id="Fill-40" fill="#FEFEFE"></path>
                <path d="M57.502,41.0942 C57.164,41.2922 56.829,41.4922 56.494,41.6932 C57.004,43.4802 57.164,45.4792 58.087,47.0182 C61.598,52.8772 65.668,58.4202 68.946,64.4012 C72.886,71.5872 76.83,78.8452 79.068,87.0862 C79.631,86.4122 80.052,85.6342 80.0470441,84.8552 C80.044,84.1692 79.427,83.5042 79.327,82.7952 C78.914,79.9202 78.662,77.0222 78.229,74.1492 C77.935,72.1992 77.718,70.1642 76.972,68.3742 C75.597,65.0802 73.834,61.9462 72.271,58.7292 C70.092,54.2442 67.658,49.9272 63.93,46.5232 C61.861,44.6322 59.648,42.8992 57.502,41.0942 M54.843,40.1982 C58.512,39.3732 61.249,40.8692 63.528,43.1762 C69.223,48.9462 73.567,55.7182 76.878,63.0522 C78.833,67.3802 80.089,72.0192 80.381,76.9052 C80.623,80.9332 81.644,84.9082 82.069,88.9342 C82.375,91.8412 82.304,94.7912 82.306,97.7212 C82.306,98.2062 81.827,98.6952 81.569,99.1802 C81.066,98.8592 80.417,98.6422 80.1,98.1902 C79.695,97.6152 79.352,96.8522 79.345,96.1692 C79.318,92.4572 77.889,89.1842 76.476,85.8592 C75.268,83.0162 74.486,79.9922 73.244,77.1672 C71.525,73.2522 69.735,69.3432 67.641,65.6212 C64.459,59.9662 61.1,54.4012 57.596,48.9402 C55.871,46.2532 54.28,43.6802 54.843,40.1982" id="Fill-42" fill="#FEFEFE"></path>
                <path d="M18.0283,63.7358 C18.0783,62.4688 19.1573,61.9218 20.8763,62.8628 C23.9983,64.5718 27.2093,66.1528 30.1823,68.0908 C32.5603,69.6388 34.6413,71.6388 36.8563,73.4398 C36.1813,70.7308 35.6393,67.6338 33.8263,65.7798 C29.8513,61.7088 26.7483,56.4498 20.8783,54.5848 C18.9783,53.9798 16.9133,53.3088 14.9983,53.4868 C12.6943,53.6988 10.4933,54.8748 8.2013,55.4618 C5.2743,56.2118 4.1883,58.8078 2.6543,60.8828 C1.6903,62.1878 2.7443,64.2208 4.4173,64.5448 C8.3163,65.3008 12.2693,65.7928 16.1403,66.6508 C19.2283,67.3398 22.2373,68.3888 25.2693,69.3188 C26.7963,69.7878 28.2973,70.3428 29.8093,70.8628 C29.9383,70.5228 30.0683,70.1848 30.1963,69.8448 C26.2793,67.8788 22.3623,65.9118 18.0283,63.7358 M0.0003,62.4108 C0.4333,59.1958 3.2093,55.4638 6.4303,54.3388 C9.4893,53.2718 12.5773,51.7318 15.7073,51.5898 C18.3593,51.4688 21.3583,52.5848 23.7373,53.9598 C31.2933,58.3188 36.1603,65.0738 39.4063,73.0608 C39.8943,74.2608 40.3743,75.4968 40.6033,76.7628 C40.7153,77.3858 40.2423,78.1158 40.0363,78.7958 C39.4033,78.5638 38.6593,78.4738 38.1613,78.0768 C33.7723,74.5868 28.8093,72.4048 23.5233,70.5138 C18.8183,68.8348 14.1563,67.9098 9.2363,67.4998 C6.6803,67.2868 4.1193,66.3698 1.7333,65.3618 C0.8923,65.0058 0.5623,63.4298 0.0003,62.4108" id="Fill-44" fill="#FEFEFE"></path>
                <path d="M87.586,63.0347 C85.117,64.9137 83.089,66.9707 83.352,69.8007 C83.794,74.5927 84.473,79.5577 87.492,83.4857 C89.88,86.5907 92.949,89.1867 95.809,91.9147 C98.988,94.9487 102.818,96.4337 107.752,96.3697 C107.044,95.3647 106.631,94.5817 106.035,93.9747 C102.693,90.5787 99.198,87.3217 95.962,83.8277 C92.625,80.2167 89.178,76.5717 88.442,71.3797 C88.069,68.7457 87.892,66.0827 87.586,63.0347 M111.557,98.4967 C104.487,98.9757 98.486,97.4577 93.675,92.3667 C91.132,89.6797 88.201,87.3087 85.961,84.3987 C83.165,80.7567 82.456,76.2167 81.687,71.7487 C81.052,68.0497 84.044,62.2357 87.511,60.8367 C88.801,60.3167 89.974,59.5047 91.774,58.5067 C91.055,60.5007 90.318,62.0367 89.951,63.6577 C88.891,68.3437 90.324,72.7527 92.824,76.4577 C95.212,79.9877 98.642,82.8067 101.564,85.9817 C104.712,89.4017 107.831,92.8477 110.89,96.3447 C111.307,96.8217 111.311,97.6567 111.557,98.4967" id="Fill-46" fill="#FEFEFE"></path>
                <path d="M321.0655,146.4985 C320.2445,147.1545 319.5195,148.0755 318.5825,148.4245 C313.4805,150.3245 308.6635,152.5645 305.5205,157.3365 C305.3375,157.6135 304.4245,157.7835 304.2285,157.6015 C303.8875,157.2795 303.5375,156.4395 303.7165,156.1795 C304.5755,154.9335 305.4415,153.5945 306.6125,152.6775 C313.6895,147.1235 320.1405,141.0165 324.0535,132.7505 C325.3665,129.9825 326.4205,127.0225 327.0915,124.0385 C328.0755,119.6715 332.4555,116.4935 336.5725,117.9915 C339.1645,118.9355 340.9615,121.4275 341.2975,124.0075 C341.7815,127.7145 342.6565,131.8355 340.2975,135.1655 C338.6015,137.5605 336.2725,139.7145 333.7885,141.2825 C330.8415,143.1425 327.4455,144.2945 324.2115,145.6735 C323.1905,146.1105 322.0575,146.2905 320.9775,146.5845 C320.9825,146.3325 320.9035,145.9005 321.0035,145.8525 C323.4455,144.6825 325.9365,143.6195 328.3545,142.4015 C331.9555,140.5915 335.7345,138.9605 337.9015,135.2425 C340.3855,130.9785 340.1695,126.5515 338.1645,122.2615 C337.1605,120.1165 334.9145,119.1645 332.6965,119.9755 C331.3415,120.4695 330.0125,121.8365 329.3295,123.1525 C328.3085,125.1215 327.7705,127.3665 327.1955,129.5375 C325.5075,135.9175 321.8705,141.0525 317.1935,145.5555 C316.7025,146.0235 316.3645,146.6505 315.7225,147.5215 C317.7775,147.1285 319.4195,146.8125 321.0655,146.4985" id="Fill-48" fill="#FEFEFE"></path>
                <path d="M269.5391,74.5405 C269.1101,75.4945 268.6771,76.4505 268.2061,77.4985 C265.7761,78.1365 262.9881,78.9725 260.1461,79.5165 C259.6461,79.6115 258.4001,78.4705 258.416928,77.9305 C258.4411,77.2405 259.3341,76.0695 259.9631,75.9905 C266.1931,75.1985 271.4651,72.0725 276.7581,69.1165 C282.3751,65.9775 286.9641,61.5135 291.2761,56.7785 C292.9151,54.9795 294.3651,52.9965 296.1111,51.3195 C297.3741,50.1105 298.8911,49.0615 300.4701,48.3245 C301.9951,47.6145 304.3661,49.8405 304.6211,51.8125 C304.7791,53.0255 305.5421,54.2555 305.3921,55.3935 C305.1621,57.1575 304.7671,59.1245 303.7671,60.5245 C301.0121,64.3825 296.6901,66.3305 292.6601,68.4825 C288.6311,70.6355 284.4591,72.5815 280.2001,74.2285 C276.9361,75.4875 273.4401,76.1365 270.0151,77.0675 C269.7981,75.9375 269.6601,75.2215 269.5221,74.5065 C271.5941,74.2695 273.7111,74.2395 275.7121,73.7355 C278.7251,72.9755 281.8291,72.2355 284.5801,70.8525 C288.8131,68.7205 292.6891,65.8785 296.8911,63.6605 C300.9531,61.5175 303.8461,58.8285 302.9371,53.8535 C302.7121,52.6195 301.7121,51.4615 300.8241,50.4895 C300.6901,50.3425 299.1031,51.2525 298.4201,51.9135 C295.0111,55.2205 291.7981,58.7345 288.2841,61.9275 C285.0671,64.8545 281.7131,67.6785 278.1371,70.1375 C275.5031,71.9475 272.4241,73.0965 269.5391,74.5405" id="Fill-50" fill="#FEFEFE"></path>
                <path d="M186.4497,148.8852 C186.5367,148.2452 186.7287,147.8362 186.6037,147.5912 C185.0247,144.5302 183.5907,141.3682 181.7407,138.4812 C179.7617,135.3972 177.5527,132.4172 175.0977,129.7062 C173.7557,128.2232 171.8307,126.8432 169.9337,126.3782 C166.7967,125.6122 164.8667,127.8542 163.4207,130.3882 C161.6747,133.4522 164.3497,138.7492 167.6967,139.6622 C171.0057,140.5652 174.2477,141.8662 177.3267,143.3882 C180.3987,144.9062 183.2237,146.9132 186.4497,148.8852 M191.7507,158.4972 C189.4547,155.8632 187.8667,153.6002 185.8497,151.8192 C181.8317,148.2642 177.2777,145.5722 172.2177,143.5772 C168.5967,142.1532 164.3587,141.5482 161.9947,137.7602 C160.3257,135.0822 160.7787,132.3112 161.6287,129.5852 C162.9827,125.2472 167.0047,124.6662 170.4717,124.6082 C173.2397,124.5622 175.6437,126.7952 177.4067,129.2082 C178.0357,130.0712 178.7647,130.8612 179.4817,131.6512 C183.6407,136.2092 186.3207,141.6312 188.7087,147.2422 C189.8667,149.9552 191.3177,152.5462 192.3797,155.2872 C192.6717,156.0422 192.0427,157.1512 191.7507,158.4972" id="Fill-52" fill="#FEFEFE"></path>
                <path d="M429.2344,100.5444 C429.0174,100.6504 428.8004,100.7574 428.5854,100.8654 C429.0304,103.4094 429.4094,105.9664 429.9434,108.4944 C430.1804,109.6294 430.6844,110.7174 431.1384,111.8014 C433.0814,116.4664 436.5484,120.0394 439.9274,123.6214 C441.2704,125.0454 443.0614,126.4994 444.8824,126.9114 C449.0254,127.8544 452.6974,126.5694 455.3894,123.0444 C456.5054,121.5814 456.2724,120.3164 454.5684,119.9044 C452.7344,119.4604 450.8344,119.2714 448.9714,118.9274 C447.9374,118.7354 446.7294,118.7234 445.9294,118.1644 C443.0994,116.1934 440.1244,114.2974 437.7444,111.8464 C435.3364,109.3664 433.5734,106.2564 431.5054,103.4374 C430.7804,102.4494 429.9934,101.5074 429.2344,100.5444 M427.5384,92.3724 C431.2724,99.5674 434.8804,106.4494 440.6704,112.1504 C444.5834,116.0084 449.0504,117.6074 454.1974,117.7434 C456.2644,117.7974 457.3274,119.0744 457.9854,120.3444 C458.3934,121.1384 457.6814,122.9384 456.9264,123.8304 C453.9434,127.3664 450.3834,129.5624 445.3544,129.1814 C442.2954,128.9474 440.7654,126.7664 438.9034,125.2244 C434.7854,121.8114 431.1224,117.8374 429.1384,112.6784 C428.5304,111.0944 427.6724,109.4714 427.6094,107.8424 C427.4134,102.6904 427.5384,97.5294 427.5384,92.3724" id="Fill-54" fill="#FEFEFE"></path>
                <path d="M263.1875,131.5503 C263.1335,131.3293 263.0835,131.1083 263.0345,130.8873 C261.1285,131.6863 259.2455,132.5293 257.3245,133.2713 C250.6945,135.8323 244.2965,138.6133 239.5205,144.3233 C236.9585,147.3883 236.5585,150.6743 237.0205,154.2313 C237.2045,155.6253 238.7045,156.3623 239.9375,155.3773 C242.1335,153.6293 244.2345,151.7143 246.1305,149.6453 C249.1475,146.3533 251.8605,142.7733 254.9075,139.5103 C257.5155,136.7153 260.4165,134.1923 263.1875,131.5503 M278.1775,122.4963 C277.4575,123.3323 276.8655,124.3553 275.9865,124.9683 C272.2145,127.5993 268.0595,129.7623 264.6135,132.7463 C259.9615,136.7723 255.7405,141.3123 251.5145,145.8003 C249.4765,147.9673 248.0725,150.7453 245.9675,152.8323 C244.0265,154.7583 241.6175,156.2693 239.2425,157.6773 C238.1665,158.3153 235.0285,156.0983 234.9035,154.8133 C234.4165,149.8213 235.3825,145.1313 239.1915,141.6993 C244.1645,137.2263 249.8435,133.9253 256.3945,132.0373 C259.6415,131.1023 262.6415,129.2313 265.6635,127.6203 C268.9385,125.8693 272.0935,123.8903 275.3525,122.1053 C275.9645,121.7693 276.8155,121.8693 277.5565,121.7673 C277.7615,122.0113 277.9695,122.2523 278.1775,122.4963" id="Fill-56" fill="#FEFEFE"></path>
                <path d="M361.9766,162.897 C362.2096,162.547 362.3606,162.042 362.6856,161.876 C367.3486,159.497 371.6956,156.732 375.0626,152.604 C376.3676,151.008 377.4716,151.277 378.3836,153.052 C379.9346,156.076 382.1056,158.888 383.0766,162.079 C384.4066,166.453 385.4856,170.958 383.7596,175.735 C383.0556,177.698 382.2306,179.227 380.7136,180.451 C380.1176,180.928 379.3006,181.13 378.2586,181.159 C383.3726,177.29 383.0806,171.791 382.2556,166.794 C381.5596,162.558 379.1756,158.597 377.5386,154.515 C377.1216,154.6 376.7086,154.686 376.2916,154.771 C376.2916,155.703 376.3336,156.636 376.2836,157.565 C375.9576,163.706 375.6376,169.847 375.2496,175.983 C375.1216,177.999 375.2706,179.8 377.6176,180.723 C375.8166,181.471 373.5336,180.23 373.3206,178.488 C373.1656,177.246 373.4086,175.952 373.4916,174.681 C373.8536,169.192 374.2206,163.704 374.6216,157.661 C371.0746,162.393 368.2826,166.582 365.0016,170.351 C362.6066,173.108 359.6016,175.348 356.7926,177.725 C356.3176,178.127 355.4506,178.067 354.7676,178.219 L354.8216,178.267 C355.3926,177.571 355.8336,176.652 356.5636,176.214 C361.7856,173.081 364.9486,167.957 368.8526,163.569 C369.8616,162.439 370.3616,160.86 371.4196,158.88 C370.1956,159.553 369.6116,159.943 368.9736,160.213 C366.6686,161.195 364.8276,163.435 361.9306,162.847 L361.9766,162.897 Z" id="Fill-58" fill="#FEFEFE"></path>
                <path d="M210.0791,173.1655 C209.9251,173.0325 209.7741,172.9005 209.6211,172.7695 C208.6371,173.2205 207.6331,173.6375 206.6661,174.1265 C203.4321,175.7665 200.1101,177.2765 197.0311,179.1795 C196.0641,179.7775 194.9551,181.8545 195.3061,182.5535 C196.2051,184.3415 198.2721,184.0305 200.0441,183.6965 C200.3601,183.6365 200.6271,183.3545 200.9441,183.2645 C204.5491,182.1965 205.5781,178.6125 207.8121,176.2105 C208.6661,175.2895 209.3291,174.1855 210.0791,173.1655 M215.4721,166.2605 C215.9881,166.6355 216.9841,167.3625 218.0351,168.1255 C213.4211,171.5655 210.0791,175.8705 207.3241,180.6755 C205.0991,184.5635 199.2931,186.8205 195.3681,185.3175 C192.3051,184.1465 191.5001,182.0315 193.5131,179.4755 C194.7671,177.8795 196.4351,176.4515 198.2021,175.4535 C200.6561,174.0635 203.4701,173.3155 205.9611,171.9845 C209.1121,170.3035 212.1001,168.3095 215.4721,166.2605" id="Fill-60" fill="#FEFEFE"></path>
                <path d="M295.0606,115.1509 C295.9566,114.1859 297.3116,113.3609 297.6536,112.2269 C298.5326,109.3229 301.2656,108.7849 303.2246,107.2809 C303.6746,106.9339 304.4506,107.0109 305.0796,106.8929 C305.3046,107.0719 305.5336,107.2539 305.7586,107.4319 C304.8546,109.1329 304.1586,110.9919 302.9996,112.4919 C301.4786,114.4589 299.6576,116.2149 297.8446,117.9299 C295.5776,120.0699 293.2186,122.1169 290.8386,124.1299 C286.0836,128.1509 284.1716,133.8729 281.8916,139.3129 C281.0206,141.3859 281.3786,143.9559 280.6166,146.0999 C279.4246,149.4709 277.7876,152.6879 276.2246,155.9189 C276.0996,156.1809 275.1236,156.0369 274.5446,156.0829 L274.5856,156.1189 C274.6076,155.6229 274.4316,154.9539 274.6866,154.6559 C277.7996,151.0339 278.2156,146.3579 279.6326,142.0909 C280.5496,139.3219 280.8586,136.3189 282.0166,133.6709 C283.7756,129.6379 286.3756,126.1169 289.7016,123.1129 C292.2276,120.8329 294.4356,118.1989 296.9946,115.5009 C296.0146,115.3069 295.5196,115.2069 295.0276,115.1089 L295.0606,115.1509 Z" id="Fill-62" fill="#FEFEFE"></path>
                <path d="M110.9185,111.5942 C108.9935,111.2362 107.2685,110.9652 105.5695,110.5862 C103.7965,110.1882 101.9755,109.8632 100.3025,109.1902 C97.5535,108.0852 94.9445,106.6372 92.2105,105.4972 C88.9065,104.1182 85.6435,106.4492 85.4225,109.9152 C85.1975,113.4012 87.9355,113.9952 90.0685,114.8652 C94.4115,116.6372 99.0245,116.7702 103.5945,115.8062 C106.3765,115.2182 109.0305,114.1872 110.9185,111.5942 M115.9945,109.8482 C113.2695,111.9942 110.6625,114.3202 107.7725,116.2122 C106.3135,117.1662 104.3635,117.6682 102.5965,117.7912 C96.5495,118.2042 90.4855,118.6622 85.2685,114.3802 C82.8055,112.3592 83.0595,109.6692 83.6515,107.4182 C84.0495,105.9142 86.1435,104.1262 87.7355,103.8182 C91.3815,103.1172 95.1365,103.7752 98.2745,105.9812 C101.5295,108.2732 105.1695,109.3272 108.9975,109.7042 C110.3895,109.8442 111.8665,109.0172 113.3235,108.7142 C114.0565,108.5632 114.8325,108.6002 115.5885,108.5522 C115.7235,108.9842 115.8585,109.4152 115.9945,109.8482" id="Fill-64" fill="#FEFEFE"></path>
                <path d="M284.0967,46.9272 L284.6207,47.1702 C286.0927,45.4222 287.5387,43.6562 289.0387,41.9342 C292.3677,38.1092 295.0067,34.0412 296.7987,29.1192 C297.8657,26.1842 296.2147,24.4442 296.0767,22.1542 C296.0657,21.9992 294.4067,21.5802 293.9147,21.9002 C292.9317,22.5322 291.8437,23.4602 291.4727,24.5062 C290.2307,27.9782 289.3517,31.5782 288.2097,35.0872 C287.1097,38.4542 285.8507,41.7722 284.6707,45.1122 C284.4627,45.7102 284.2877,46.3232 284.0967,46.9272 M278.8167,53.6302 C281.1167,49.1522 283.3047,45.5102 284.8837,41.6212 C286.0637,38.7082 286.3757,35.4512 287.2307,32.3932 C288.3137,28.5312 288.4437,24.1942 291.9767,21.4432 C293.0767,20.5882 295.1447,19.3222 295.6527,19.7092 C296.9277,20.6782 298.0197,22.3872 298.3657,23.9772 C299.2697,28.1272 298.1607,32.0732 295.8267,35.5492 C293.7727,38.6162 291.5647,41.6142 289.1557,44.4092 C286.6387,47.3312 283.8217,50.0022 281.0757,52.7152 C280.6417,53.1432 279.8667,53.2222 278.8167,53.6302" id="Fill-66" fill="#FEFEFE"></path>
                <path d="M275.9659,161.812 C275.2859,164.498 272.8159,165.123 270.7649,165.839 C267.0229,167.153 263.0929,167.925 259.2759,169.053 C255.0539,170.299 250.8859,171.728 246.6729,172.998 C244.9019,173.529 243.0719,173.851 241.2679,174.268 C241.3219,174.571 241.3719,174.871 241.4259,175.17 C242.3219,175.01 243.2269,174.878 244.1139,174.679 C244.5769,174.575 245.0059,174.227 245.4599,174.193 C250.8279,173.816 256.2039,173.533 261.5679,173.108 C264.4139,172.88 267.2429,172.428 270.0809,172.081 C269.8189,172.391 269.5979,172.928 269.2979,172.978 C266.5689,173.412 263.8299,173.845 261.0799,174.116 C256.8249,174.533 252.5279,174.654 248.2939,175.229 C245.7809,175.569 243.3189,176.446 240.9009,177.273 C240.1759,177.521 239.5839,178.348 239.0919,179.025 C238.5549,179.763 238.2049,180.636 237.7009,181.584 C235.5539,178.247 238.7049,173.049 242.1599,172.103 C246.8529,170.824 251.5119,169.43 256.1999,168.14 C258.9499,167.384 261.7679,166.848 264.4929,166.01 C267.9979,164.933 271.7809,164.527 274.7199,161.964 C274.9829,161.735 275.5449,161.854 275.9659,161.812" id="Fill-68" fill="#FEFEFE"></path>
                <path d="M438.9864,95.3393 C439.4444,95.7603 440.2414,96.5523 441.0994,97.2693 C442.6324,98.5483 444.2204,99.4463 446.4174,99.4633 C449.3464,99.4853 451.3044,98.1033 453.6424,96.5653 C456.0684,94.9693 455.1854,93.2313 455.0094,91.6033 C454.8554,90.1533 452.2264,89.9633 450.2174,90.8263 C446.6744,92.3433 443.0664,93.7103 438.9864,95.3393 M430.4474,95.4123 C431.4184,93.6523 434.8774,91.9353 436.0524,92.3763 C438.8944,93.4473 441.5074,92.3103 444.0744,91.4703 C446.7544,90.5933 449.2674,89.2113 451.9224,88.2463 C453.9604,87.5043 457.1644,90.0453 457.2024,92.2433 C457.2644,95.8753 454.7894,99.2653 451.1964,100.3823 C449.8714,100.7943 448.5174,101.1303 447.1544,101.4073 C443.5834,102.1303 441.2454,99.8383 438.8244,97.8643 C437.6324,96.8983 436.6654,95.6583 435.4654,94.7103 C435.1064,94.4293 434.2904,94.6683 433.6984,94.7623 C432.7224,94.9163 431.7594,95.1463 430.4474,95.4123" id="Fill-70" fill="#FEFEFE"></path>
                <path d="M180.2022,40.0942 C180.6232,39.8512 180.9192,39.7342 181.1482,39.5402 C185.5152,35.8832 187.9782,31.1612 188.5412,25.5522 C188.6452,24.5282 187.5662,23.3812 187.0362,22.2932 C186.0702,22.8062 184.7532,23.0732 184.1992,23.8702 C180.8892,28.6322 179.0062,33.8352 180.2022,40.0942 M178.6142,42.5952 C177.0602,36.1942 177.8102,30.3762 181.0652,24.9562 C181.7942,23.7452 182.7852,22.6812 183.7522,21.6392 C184.8072,20.5032 185.9862,19.4872 187.7122,20.3722 C189.4292,21.2532 190.2332,22.6642 190.1792,24.6152 C189.9742,31.8122 186.6162,37.3192 181.0602,41.6212 C180.4392,42.1012 179.5522,42.2352 178.6142,42.5952" id="Fill-72" fill="#FEFEFE"></path>
                <path d="M115.795,122.8169 C115.639,123.1009 115.481,123.3839 115.326,123.6679 C118.493,125.0549 121.661,126.4409 124.957,127.8849 C125.07,124.7219 120.279,122.2529 115.795,122.8169 M132.85,135.2689 C131.573,134.4969 130.17,133.8739 129.044,132.9249 C125.357,129.8229 121.019,128.0639 116.506,126.7019 C114.618,126.1299 112.595,124.4529 112.92,123.2379 C113.234,122.0589 116.568,120.2419 117.937,120.7559 C120.652,121.7729 123.461,122.7339 125.882,124.2679 C127.18,125.0869 127.687,127.0949 128.674,128.4789 C130.154,130.5519 131.742,132.5479 133.286,134.5779 C133.14,134.8089 132.996,135.0409 132.85,135.2689" id="Fill-74" fill="#FEFEFE"></path>
                <path d="M84.315,49.3735 C83.419,49.5855 82.194,50.2815 81.677,49.9335 C78.891,48.0525 75.947,46.2805 74.517,42.9385 C73.665,40.9485 74.238,35.4665 75.651,33.8745 C77.664,31.6075 82.644,32.8935 84.476,35.5045 C87.109,39.2545 86.165,43.3345 86.52,47.3265 C86.682,49.1605 85.272,49.0105 84.282,49.4375 C84.536,47.9475 84.936,46.4705 84.988,44.9805 C85.027,43.8345 84.453,42.6745 84.461,41.5215 C84.478,38.9215 83.394,36.9375 81.473,35.3135 C79.631,33.7555 77.901,33.9825 76.507,35.9545 C75.574,37.2745 75.855,41.8565 77.137,43.0605 C79.46,45.2385 81.915,47.2765 84.315,49.3735" id="Fill-76" fill="#FEFEFE"></path>
                <path d="M272.2979,157.9165 C271.0649,159.8695 269.4769,161.3095 266.9849,160.9215 C265.1059,160.6295 263.1299,158.0025 263.1129,155.9825 C263.0709,151.5555 264.8889,147.6005 266.7089,143.7705 C268.6259,139.7295 271.0559,135.9145 273.4889,132.1475 C274.4739,130.6285 275.9019,129.2595 277.4199,128.2795 C278.4659,127.6065 278.4619,125.2505 280.5319,126.2005 L280.4789,126.1505 C281.0449,128.5325 278.7619,129.0235 277.6779,130.2765 C275.9739,132.2435 273.7849,133.8685 272.4139,136.0225 C270.4889,139.0405 268.8259,142.3065 267.6019,145.6645 C266.4179,148.9105 265.6549,152.3765 265.2179,155.8085 C264.8469,158.7335 267.4389,160.0195 270.1139,158.5855 C270.7769,158.2305 271.5939,158.1565 272.3399,157.9525 L272.2979,157.9165 Z" id="Fill-78" fill="#FEFEFE"></path>
                <path d="M308.3028,67.7367539 C305.8068,67.7298 305.0318,68.5178 305.022748,71.0508 C305.0148,73.9818 305.9228,75.1238 308.2318,75.0838 C310.2028,75.0498 312.3578,73.0228 312.3368,71.2268 C312.3118,69.2768 310.5358,67.7408 308.3028,67.7367539 M307.5898,76.9528 C304.0558,76.9728 302.1638,75.0608 302.143747,71.4498 C302.1308,68.4848 304.5098,65.7468 307.1398,65.7048 C311.6608,65.6358 314.4458,67.7408 314.3998,71.1978 C314.3628,74.1548 311.0738,76.9338 307.5898,76.9528" id="Fill-80" fill="#FEFEFE"></path>
                <path d="M229.5322,131.0669 C226.6402,132.4319 225.1602,134.4699 225.6112,137.7239 C225.8652,139.5669 227.1822,140.3299 228.7572,139.3499 C231.6992,137.5199 232.1292,133.5659 229.5322,131.0669 M223.602193,136.8029 C223.6062,134.1509 226.6532,129.6109 229.1282,129.0189 C231.2122,128.5189 232.0702,130.3069 232.8792,131.7689 C234.6962,135.0489 231.2532,140.8799 228.1782,141.6609 C225.3032,142.3939 223.5982,140.5439 223.602193,136.8029" id="Fill-82" fill="#FEFEFE"></path>
                <path d="M354.7676,178.2192 C353.2716,180.0522 351.1326,180.7852 349.0956,180.1032 C348.0076,179.7362 346.9496,177.9462 346.7036,176.6412 C346.0816,173.3472 347.4196,170.6342 349.9746,168.4082 C353.4546,165.3752 357.2966,163.2582 361.9766,162.8972 L361.9306,162.8472 C361.4936,163.4182 361.1566,164.3432 360.5976,164.5062 C356.9256,165.5792 353.8256,167.4902 350.9126,169.9782 C348.8866,171.7072 347.7656,176.3122 349.5666,178.3002 C349.9746,178.7502 350.8996,178.9462 351.5666,178.9062 C352.6586,178.8462 353.7376,178.4962 354.8216,178.2672 L354.7676,178.2192 Z" id="Fill-84" fill="#FEFEFE"></path>
                <path d="M158.5425,117.5259 C156.5425,119.5989 154.4295,121.4709 151.3205,121.5639 L151.3545,121.6059 C151.3745,121.1869 151.2295,120.6349 151.4415,120.3689 C154.2045,116.9099 157.0215,113.4919 159.8225,110.0649 C160.1595,110.3269 160.4975,110.5879 160.8345,110.8499 C159.2615,112.8919 157.6885,114.9359 155.7335,117.4779 L158.4905,117.4779 L158.5425,117.5259 Z" id="Fill-86" fill="#FEFEFE"></path>
                <path d="M271.8399,171.0571 C272.5609,170.3921 273.1939,169.5651 274.0279,169.0941 C275.8409,168.0701 277.4619,164.5911 276.7819,162.6681 C276.6659,162.3391 276.1939,162.1391 275.8909,161.8801 C276.6329,160.7511 277.3739,159.6211 278.4749,157.9431 C280.2409,165.9211 277.1039,170.5281 271.8399,171.0571" id="Fill-88" fill="#FEFEFE"></path>
                <path d="M281.1553,122.3013 C283.2683,120.2173 285.2813,118.0173 287.5273,116.0913 C289.2163,114.6503 290.5743,112.3073 293.4363,113.0843 L293.4033,113.0423 C293.3443,113.3433 293.3953,113.7743 293.2123,113.9243 C290.6533,116.0563 288.1323,118.2483 285.4433,120.2043 C284.1733,121.1303 282.5593,121.5843 281.1013,122.2513 L281.1553,122.3013 Z" id="Fill-90" fill="#FEFEFE"></path>
                <path d="M399.1123,72.9731 C397.6123,70.5391 400.4003,70.0081 401.2463,68.9161 C402.8003,66.9131 405.0843,65.4651 407.1343,63.8841 C407.5593,63.5571 408.3093,63.6551 408.9103,63.5591 C409.0313,63.7921 409.1563,64.0241 409.2763,64.2551 C406.5893,66.4431 403.8833,68.6191 401.2163,70.8311 C400.4463,71.4681 399.7713,72.2231 399.0533,72.9291 C399.0583,72.9331 399.1123,72.9731 399.1123,72.9731" id="Fill-92" fill="#FEFEFE"></path>
                <path d="M124.3282,144.4214 C124.2572,144.7234 124.1682,145.2904 124.1182,145.2854 C121.4342,145.1054 118.7502,144.8644 116.0682,144.6524 C114.8912,144.5594 113.7122,144.5004 112.5362,144.4344 C111.5782,144.3774 110.6242,144.3334 109.6902,143.9944 C114.6392,142.8524 119.4982,143.8924 124.3742,144.4694 L124.3282,144.4214 Z" id="Fill-94" fill="#FEFEFE"></path>
                <path d="M353.6104,107.8833 C350.7724,106.5053 350.7264,103.4923 349.7714,101.0793 C348.6174,98.1523 347.6094,95.1263 346.9384,92.0573 C345.5254,85.5723 341.4914,80.2343 339.3494,74.0703 C338.6284,71.9953 337.1284,70.2013 336.1284,68.2073 C335.7904,67.5283 335.8904,66.6273 335.7904,65.8273 C336.3444,66.3463 337.0784,66.7633 337.4204,67.3943 C340.4544,73.0393 343.6374,78.6213 346.3214,84.4333 C347.8804,87.8113 348.5434,91.5923 349.7174,95.1573 C350.8684,98.6503 352.1934,102.0863 353.3644,105.5713 C353.6104,106.2973 353.5094,107.1393 353.5644,107.9293 L353.6104,107.8833 Z" id="Fill-96" fill="#FEFEFE"></path>
            </g>
        </g>
    </g>
</svg>